<svg width="149" height="152" viewBox="0 0 149 152" fill="none" xmlns="http://www.w3.org/2000/svg">
<g filter="url(#filter0_d_65_10)">
<path d="M80.6933 72.4578C76.2283 78.769 52.3273 113.218 33.9419 113.218C21.8601 113.218 19.7589 96.6508 19.7589 84.2913C19.7589 76.6653 18.971 69.0392 28.4263 66.6725C43.9226 62.991 64.6718 44.5833 64.6718 35.9054C64.6718 24.3348 53.1153 17.2347 46.0237 17.2347C12.6674 17.2347 5.31324 57.4687 4 75.0875C4 102.699 16.6071 119.792 33.154 119.792C48.6502 119.792 78.0669 89.2877 85.421 74.2986C88.0475 68.7763 83.8451 68.7763 80.6933 72.4578ZM42.084 28.2793C44.1852 26.1756 46.2864 24.8608 48.6502 24.8608C53.6406 24.8608 56.7923 28.8053 56.7923 34.5906C56.7923 42.2166 41.2961 53.5242 31.0528 57.7317C30.7901 57.9946 30.2648 57.9946 29.7395 57.9946C28.1637 57.9946 27.901 57.2057 27.901 55.8909C27.901 47.4759 36.0431 35.1165 42.084 28.2793Z" fill="#F1C400"/>
<path d="M110.055 9.87164C142.098 9.08274 129.491 46.1611 130.016 47.213C130.016 48.7908 129.491 51.4204 132.642 51.4204C135.269 51.4204 135.794 49.8426 136.319 47.213C136.845 44.0574 154.179 4.87527 113.206 0.141861C89.0427 -2.48781 60.6767 31.9609 82.4765 60.3613C87.9921 67.7244 120.56 97.1767 124.763 106.118C128.965 114.007 135.794 136.622 120.56 135.57C112.156 135.57 109.004 116.11 109.267 112.955C109.267 112.166 109.004 110.851 108.216 110.851C107.428 110.325 106.377 110.851 105.59 110.851C100.337 117.688 104.802 143.459 120.56 143.985C133.956 144.511 151.028 131.362 142.886 99.8064C138.421 82.7135 105.852 57.2057 99.0233 49.0537C79.85 25.1237 100.599 10.1346 110.055 9.87164Z" fill="#F1C400"/>
</g>
<defs>
<filter id="filter0_d_65_10" x="0" y="0" width="149" height="152" filterUnits="userSpaceOnUse" color-interpolation-filters="sRGB">
<feFlood flood-opacity="0" result="BackgroundImageFix"/>
<feColorMatrix in="SourceAlpha" type="matrix" values="0 0 0 0 0 0 0 0 0 0 0 0 0 0 0 0 0 0 127 0" result="hardAlpha"/>
<feOffset dy="4"/>
<feGaussianBlur stdDeviation="2"/>
<feComposite in2="hardAlpha" operator="out"/>
<feColorMatrix type="matrix" values="0 0 0 0 0 0 0 0 0 0 0 0 0 0 0 0 0 0 0.25 0"/>
<feBlend mode="normal" in2="BackgroundImageFix" result="effect1_dropShadow_65_10"/>
<feBlend mode="normal" in="SourceGraphic" in2="effect1_dropShadow_65_10" result="shape"/>
</filter>
</defs>
</svg>
