<svg width="370" height="135" viewBox="0 0 370 135" fill="none" xmlns="http://www.w3.org/2000/svg">
<g filter="url(#filter0_d_63_2)">
<path d="M87.3783 49.4805C87.3783 50.0014 85.7315 51.4771 85.3848 52.1716C81.4846 58.5085 77.3243 64.6719 73.1641 71.0089C72.3841 72.1374 69.6106 74.0472 68.8305 74.0472C65.797 74.0472 65.797 68.6651 65.797 65.974C65.797 61.6336 67.0971 55.9043 67.7038 51.9111C67.8771 48.6124 68.1371 46.0082 68.1371 42.8831C68.1371 37.067 66.6637 31.6849 61.7234 31.6849C57.1298 31.6849 51.6695 37.067 49.0693 41.3206C46.2958 46.0082 43.6957 50.8694 40.6622 55.2098C40.4022 54.7758 40.1421 54.3418 40.1421 53.7341C39.1888 49.4805 38.5821 44.6193 38.322 40.2789C37.9753 35.4176 35.7219 32.2057 31.735 30.2092C31.2149 29.8619 30.6082 29.8619 30.0882 29.8619C28.8748 29.8619 28.1814 30.6432 28.1814 31.9453C28.1814 31.9453 28.1814 32.2057 28.4414 32.2057C30.0882 36.2857 30.0882 40.7997 30.6082 45.3137C30.6082 46.4422 31.0416 47.6576 31.0416 48.8729C31.0416 48.8729 30.6082 49.1333 30.3482 49.1333C28.8748 51.2167 19.9476 63.9774 13.9673 63.9774C9.98036 63.9774 9.28698 58.5085 9.28698 54.3418C9.28698 51.9111 8.85362 49.4805 12.2338 48.6124C17.3475 47.3103 24.1945 41.0601 24.1945 38.4559C24.1945 34.5496 20.2943 32.2057 17.8675 32.2057C6.94684 32.2057 4.6067 45.7478 4 51.2167C4 60.3315 8.33359 65.974 13.7072 65.974C18.4742 65.974 27.9214 56.5988 31.2149 50.8694C32.3417 57.7273 35.0285 65.4532 38.322 65.4532C40.9222 65.4532 41.9623 63.0226 42.2223 60.9392C43.2623 54.3418 47.2492 49.1333 50.9761 43.838C53.1429 40.5393 57.9099 34.5496 61.7234 34.5496C62.8502 34.5496 63.4569 35.8517 63.4569 37.067C63.4569 38.8031 62.8502 39.8448 62.5901 41.3206C61.4634 47.918 59.6433 54.0813 59.6433 60.5919C59.6433 67.8838 59.99 78.2139 68.8305 78.2139C72.3841 78.2139 73.5108 75.7833 76.8043 71.0089C79.7512 65.4532 82.6113 60.1579 85.9915 55.2098L88.8517 50.0014C89.1117 48.9597 88.245 48.6992 87.3783 49.4805ZM11.8871 44.8797C11.8871 42.3623 14.7473 38.1087 16.8274 35.8517C17.3475 35.1572 18.2142 34.5496 18.7342 34.5496C20.5543 34.5496 21.421 36.0253 21.421 37.7614C21.421 40.5393 16.4807 44.1852 13.2739 45.7478H12.4938C11.8871 45.7478 11.8871 45.3137 11.8871 44.8797Z" fill="#F1C400"/>
<path d="M117.513 51.4771C112.399 56.5988 110.493 59.203 105.292 64.3247C103.732 65.8004 101.219 67.4498 99.0519 67.4498C93.2449 67.4498 93.0715 57.8141 93.0715 54.5154C93.0715 50.0882 93.1582 45.4874 93.6782 40.9733C94.2849 35.1572 94.545 35.1572 100.265 34.4627C101.999 34.1155 103.819 34.1155 105.639 34.1155C106.852 34.1155 107.979 34.1155 109.192 34.1155C110.666 34.1155 110.926 34.0287 112.053 33.0738C111.619 32.7266 111.273 32.0321 110.839 32.0321C106.592 31.7717 102.259 31.5981 97.9252 31.4245C96.1917 31.3377 95.4983 30.9904 95.4983 29.6015C95.4983 27.7785 96.4517 18.4033 97.4051 18.4033C97.9252 15.1046 98.1852 11.7191 98.8785 8.42037C98.9652 7.81271 99.0519 7.20506 99.0519 6.5974C99.0519 4.16678 96.8851 0 93.4182 0C91.1648 0 90.6447 4.86124 90.1247 8.33356C89.1713 15.0178 88.0446 21.702 87.0912 28.2994C86.2245 33.6815 85.8778 31.5113 78.3373 33.2474C77.9906 33.4211 77.644 33.8551 77.644 34.2891C77.644 37.4142 85.7911 34.7232 85.7911 39.6712C85.7911 40.7129 85.4444 42.2755 85.4444 43.9248C85.4444 53.3869 88.998 70.054 99.0519 70.054C106.506 70.054 114.653 58.1613 119.246 52.3452C119.593 51.7375 118.64 50.0014 117.513 51.4771Z" fill="#F1C400"/>
<path d="M159.751 50.2618C159.751 50.175 158.624 49.3069 158.277 49.3069C158.537 49.3069 143.63 69.9672 139.729 69.9672C136.956 69.9672 135.309 65.6268 135.309 61.1996C135.309 59.203 135.656 57.1196 136.436 54.9494C137.823 51.0431 138.689 46.7895 139.816 42.7095C139.989 42.2755 139.989 41.8414 139.989 41.4074C139.989 36.8066 133.489 36.0253 130.022 35.4176C123.608 34.3759 127.855 31.4245 124.822 25.9556C124.042 24.5666 122.742 23.8722 121.528 23.8722C118.928 23.8722 116.761 27.3445 116.761 29.9487C116.761 32.2057 118.061 34.3759 120.662 35.9385C122.568 37.1538 123.175 37.501 123.175 38.5427C123.175 40.6261 120.055 47.7444 116.848 52.0848C116.415 52.9528 117.888 53.4737 118.321 53.1264C122.655 48.8729 124.388 37.5878 127.509 37.6746C130.542 37.7614 132.969 39.1504 132.969 40.4525C132.969 40.8865 132.882 41.4942 132.709 42.1887C131.149 47.2235 128.202 54.255 128.202 58.6822C128.202 64.4983 133.229 72.9187 140.249 72.9187C142.07 72.9187 143.456 72.2242 144.756 70.5748C148.223 65.974 159.751 51.8243 159.751 50.2618ZM123.868 32.8134C123.608 33.3342 123.262 34.2023 123.002 34.2023C120.488 33.9419 119.882 31.9453 119.882 30.4696C119.882 29.0807 120.748 26.5632 121.962 26.5632C123.262 26.5632 123.868 30.73 124.042 31.5113C123.955 32.4662 123.955 32.6398 123.868 32.8134Z" fill="#F1C400"/>
<path d="M187.144 63.5434C186.71 63.9774 186.364 64.1511 185.93 64.1511C185.324 64.1511 184.803 63.6302 184.717 62.6753C184.197 58.1613 183.677 46.2686 181.597 46.2686C179.95 46.2686 177.783 50.5222 176.656 52.6924C173.883 58.1613 169.636 62.4149 164.869 66.1476C164.262 66.6685 163.222 67.0157 162.355 67.0157C161.142 67.0157 159.929 65.4532 159.929 64.0642C160.275 55.8175 165.302 48.0916 170.589 41.9282C171.456 40.8865 171.803 40.0185 171.889 39.2372C171.889 37.501 168.249 34.1155 166.256 34.1155C162.789 34.1155 157.849 42.9699 155.682 47.6576C154.035 51.1299 153.688 55.5571 153.688 58.4217C153.688 63.8038 157.415 70.488 161.922 70.488C166.689 70.488 173.363 60.6787 178.39 55.0362C178.736 54.5154 179.43 54.255 180.037 53.9077C181.423 57.1196 181.423 62.7621 181.423 65.0191C181.423 68.3178 180.383 71.2693 178.043 74.0472C171.803 81.5126 166.862 89.5858 162.615 98.2666C159.842 103.909 157.675 109.638 157.675 115.975C157.675 123.094 160.102 127 165.042 127C172.496 127 178.563 120.142 180.643 113.371C184.197 101.565 185.237 89.5858 185.237 77.3459C185.237 76.1306 184.977 74.8284 184.977 73.6999C184.977 70.7485 186.277 68.0574 188.617 65.8004C194.684 60.1579 202.571 51.5639 202.485 51.2167C202.485 50.5222 201.964 49.8278 201.964 48.7861C197.978 53.3869 191.477 59.1162 187.144 63.5434ZM178.043 108.423C176.57 116.236 171.023 124.569 165.389 124.569C161.402 124.569 160.709 121.184 160.709 118.666C160.709 112.156 161.835 106.34 164.956 100.784C168.943 93.4921 173.363 86.2871 177.696 79.2556C178.476 78.0403 179.863 76.5646 180.73 76.5646C181.51 76.6514 181.857 78.2139 181.857 80.7314C181.857 87.8496 179.17 102.173 178.043 108.423Z" fill="#F1C400"/>
<path d="M234.242 30.6432C244.816 30.3828 240.656 42.6227 240.829 42.9699C240.829 43.4908 240.656 44.3589 241.696 44.3589C242.563 44.3589 242.736 43.838 242.909 42.9699C243.083 41.9282 248.803 28.9938 235.282 27.4313C227.309 26.5632 217.948 37.9351 225.142 47.3103C226.962 49.7409 237.709 59.4634 239.096 62.4149C240.483 65.0191 242.736 72.4846 237.709 72.1374C234.936 72.1374 233.896 65.7136 233.982 64.6719C233.982 64.4115 233.896 63.9774 233.636 63.9774C233.376 63.8038 233.029 63.9774 232.769 63.9774C231.035 66.2344 232.509 74.7416 237.709 74.9152C242.129 75.0889 247.763 70.7485 245.076 60.3315C243.603 54.689 232.856 46.2686 230.602 43.5776C224.275 35.6781 231.122 30.73 234.242 30.6432Z" fill="#F1C400"/>
<path d="M304.112 49.3069C303.679 49.2201 302.032 54.689 301.772 55.3835C300.645 57.6405 292.325 77.8667 287.038 77.8667C284.611 77.8667 283.224 72.1374 283.224 68.9255C283.224 64.5851 285.044 59.203 285.998 54.6022C286.604 51.4771 287.298 47.918 287.298 44.7929C287.298 41.6678 285.044 39.8448 280.104 39.8448C274.297 39.8448 268.49 46.1818 265.716 51.9979C265.456 52.6924 264.85 53.1264 264.33 53.7341C261.469 50.5222 260.689 47.4839 260.689 44.1852C260.689 42.015 261.296 39.8448 262.856 37.7614C264.416 35.6781 265.37 33.0738 266.496 30.5564C268.75 25.5215 270.743 20.3999 270.743 14.3233C270.743 13.8025 270.743 13.3684 270.743 12.8476C270.743 12.5003 270.83 11.8059 270.83 11.1114C270.83 6.77102 268.23 3.81955 264.676 3.81955C259.389 3.81955 254.882 10.5906 253.842 16.5803C253.149 20.4867 252.802 24.3062 252.802 28.2126C252.802 33.5947 254.362 38.6295 254.796 43.9248C257.743 61.8941 263.55 61.3732 263.203 61.3732C265.37 61.3732 268.403 53.3001 270.223 49.6541C271.697 46.7895 273.95 44.7929 276.55 43.0567C277.244 42.6227 278.37 42.6227 279.15 42.3623C279.324 42.9699 279.671 43.6644 279.671 44.3589C279.671 44.4457 279.671 44.4457 279.671 44.5325C278.977 49.0465 278.457 53.6473 277.59 58.1613C277.157 60.1579 276.897 62.2413 276.897 64.2379C276.897 70.6616 280.104 80.4709 287.038 80.4709C294.665 80.4709 301.858 60.2447 303.245 55.8175C303.419 55.2098 304.632 52.0848 304.632 50.3486C304.632 49.8278 304.459 49.3937 304.112 49.3069ZM258.696 35.9385C258.436 32.553 258.263 29.0807 258.089 26.216C258.176 25.3479 258.176 24.393 258.176 23.5249C258.176 22.136 258.089 20.8339 258.089 19.5318C258.089 14.4969 259.563 9.72249 263.29 6.68421C263.896 6.16336 264.676 5.90294 265.283 5.90294C267.536 5.90294 268.577 9.37525 268.577 11.9795C268.317 17.8824 267.45 23.6986 264.59 28.9938C263.203 31.5981 261.036 37.067 259.649 37.067C259.303 37.067 258.783 36.3725 258.696 35.9385Z" fill="#F1C400"/>
<path d="M302.213 47.2235C301.259 53.6473 305.679 66.2344 314.087 65.54C322.494 64.6719 324.141 52.2584 323.881 46.0082C323.621 39.6712 322.407 29.2543 314.433 28.473C304.639 27.6049 302.906 40.3657 302.213 47.2235ZM306.98 46.7895C307.413 41.9282 307.76 31.164 314.78 30.8168C321.454 30.5564 322.407 42.8831 322.147 47.4839C321.714 51.3903 320.414 63.8038 312.44 62.7621C306.633 61.9809 307.153 50.9563 306.98 46.7895Z" fill="#F1C400"/>
<path d="M330.125 87.7628C330.038 88.8913 330.038 89.933 330.038 90.9747C330.038 97.7457 331.252 103.128 333.419 108.51C334.719 111.809 336.799 114.413 339.919 115.889C340.092 115.975 340.786 115.975 340.872 115.889C340.959 115.541 341.046 114.76 340.959 114.586C337.059 110.333 335.759 105.211 335.412 99.5687C335.325 98.1798 335.325 96.704 335.325 95.3151C335.325 91.2351 335.585 87.1552 336.279 82.9884C336.799 79.1688 337.405 75.3493 338.185 71.4429C338.706 68.6651 339.486 65.6268 342.519 66.5817C353.526 67.6234 359.507 59.9843 362.54 53.3001C363.494 51.1299 366.527 45.1401 365.92 40.0185C365.4 35.6781 362.454 33.1606 358.9 33.1606C357.513 33.1606 356.04 33.5947 354.48 34.3759C352.66 35.3308 351.36 36.2857 349.8 37.4142C348.586 38.3691 344.513 42.2755 343.906 42.4491C343.819 41.9282 344.773 38.7163 344.253 35.3308C343.732 31.7717 342.866 30.5564 339.486 29.6883C337.752 29.3411 336.885 29.9487 337.232 31.7717C337.665 33.8551 338.012 35.8517 338.012 37.8483C338.012 38.9768 337.925 40.1921 337.665 41.3206C335.932 50.175 334.372 58.9426 332.899 67.797C331.685 75.002 330.472 82.2939 330.125 87.7628ZM357.947 36.8934C361.067 36.8066 362.454 39.1504 362.454 42.4491C362.454 49.6541 355.953 61.6336 347.979 63.6302C343.819 64.6719 341.739 62.9357 341.739 59.637C341.739 58.5085 341.912 57.2064 342.432 55.8175C343.039 53.9077 343.646 52.2584 344.253 50.2618C345.726 45.4005 356.127 36.8934 357.947 36.8934Z" fill="#F1C400"/>
</g>
<defs>
<filter id="filter0_d_63_2" x="0" y="0" width="370" height="135" filterUnits="userSpaceOnUse" color-interpolation-filters="sRGB">
<feFlood flood-opacity="0" result="BackgroundImageFix"/>
<feColorMatrix in="SourceAlpha" type="matrix" values="0 0 0 0 0 0 0 0 0 0 0 0 0 0 0 0 0 0 127 0" result="hardAlpha"/>
<feOffset dy="4"/>
<feGaussianBlur stdDeviation="2"/>
<feComposite in2="hardAlpha" operator="out"/>
<feColorMatrix type="matrix" values="0 0 0 0 0 0 0 0 0 0 0 0 0 0 0 0 0 0 0.25 0"/>
<feBlend mode="normal" in2="BackgroundImageFix" result="effect1_dropShadow_63_2"/>
<feBlend mode="normal" in="SourceGraphic" in2="effect1_dropShadow_63_2" result="shape"/>
</filter>
</defs>
</svg>
