<svg width="292" height="309" viewBox="0 0 292 309" fill="none" xmlns="http://www.w3.org/2000/svg">
<g filter="url(#filter0_d_63_8)">
<path d="M123.301 70.6195C123.301 71.3628 120.944 73.469 120.448 74.4602C114.868 83.5044 108.915 92.3009 102.963 101.345C101.846 102.956 97.878 105.681 96.7619 105.681C92.4214 105.681 92.4214 98 92.4214 94.1593C92.4214 87.9646 94.2816 79.7876 95.1497 74.0885C95.3977 69.3805 95.7698 65.6637 95.7698 61.2035C95.7698 52.9027 93.6616 45.2212 86.5928 45.2212C80.0201 45.2212 72.2073 52.9027 68.4869 58.9734C64.5184 65.6637 60.798 72.6018 56.4576 78.7965C56.0855 78.177 55.7135 77.5575 55.7135 76.6903C54.3494 70.6195 53.4813 63.6814 53.1092 57.4867C52.6132 50.5487 49.3888 45.9646 43.6842 43.115C42.9401 42.6195 42.0721 42.6195 41.328 42.6195C39.5918 42.6195 38.5997 43.7345 38.5997 45.5929C38.5997 45.5929 38.5997 45.9646 38.9717 45.9646C41.328 51.7876 41.328 58.2301 42.0721 64.6726C42.0721 66.2832 42.6921 68.0177 42.6921 69.7522C42.6921 69.7522 42.0721 70.1239 41.7 70.1239C39.5918 73.0973 26.8184 91.3097 18.2615 91.3097C12.5569 91.3097 11.5648 83.5044 11.5648 77.5575C11.5648 74.0885 10.9447 70.6195 15.7813 69.3805C23.098 67.5221 32.8951 58.6018 32.8951 54.885C32.8951 49.3097 27.3145 45.9646 23.8421 45.9646C8.21645 45.9646 4.86809 65.292 4 73.0973C4 86.1062 10.2007 94.1593 17.8895 94.1593C24.7102 94.1593 38.2276 80.7788 42.9401 72.6018C44.5523 82.3894 48.3967 93.4159 53.1092 93.4159C56.8296 93.4159 58.3178 89.9469 58.6898 86.9734C60.178 77.5575 65.8826 70.1239 71.2152 62.5664C74.3155 57.8584 81.1362 49.3097 86.5928 49.3097C88.205 49.3097 89.0731 51.1681 89.0731 52.9027C89.0731 55.3805 88.205 56.8673 87.8329 58.9734C86.2208 68.3894 83.6165 77.1858 83.6165 86.4779C83.6165 96.885 84.1125 111.628 96.7619 111.628C101.846 111.628 103.459 108.159 108.171 101.345C112.388 93.4159 116.48 85.8584 121.316 78.7965L125.409 71.3628C125.781 69.8761 124.541 69.5044 123.301 70.6195ZM15.2852 64.0531C15.2852 60.4602 19.3776 54.3894 22.354 51.1681C23.098 50.177 24.3382 49.3097 25.0822 49.3097C27.6865 49.3097 28.9267 51.4159 28.9267 53.8938C28.9267 57.8584 21.8579 63.0619 17.2694 65.292H16.1533C15.2852 65.292 15.2852 64.6726 15.2852 64.0531Z" fill="white"/>
<path d="M166.419 73.469C159.102 80.7788 156.373 84.4956 148.933 91.8053C146.7 93.9115 143.104 96.2655 140.004 96.2655C131.695 96.2655 131.447 82.5133 131.447 77.8053C131.447 71.4867 131.571 64.9204 132.315 58.4779C133.183 50.177 133.555 50.177 141.74 49.1858C144.22 48.6903 146.824 48.6903 149.429 48.6903C151.165 48.6903 152.777 48.6903 154.513 48.6903C156.622 48.6903 156.994 48.5664 158.606 47.2035C157.986 46.708 157.49 45.7168 156.87 45.7168C150.793 45.3451 144.592 45.0973 138.392 44.8496C135.911 44.7257 134.919 44.2301 134.919 42.2478C134.919 39.646 136.283 26.2655 137.647 26.2655C138.392 21.5575 138.764 16.7257 139.756 12.0177C139.88 11.1504 140.004 10.2832 140.004 9.41593C140.004 5.9469 136.903 0 131.943 0C128.719 0 127.974 6.93805 127.23 11.8938C125.866 21.4336 124.254 30.9734 122.89 40.3894C121.65 48.0708 121.154 44.9734 110.365 47.4513C109.869 47.6991 109.372 48.3186 109.372 48.9381C109.372 53.3982 121.03 49.5575 121.03 56.6195C121.03 58.1062 120.534 60.3363 120.534 62.6903C120.534 76.1947 125.618 99.9823 140.004 99.9823C150.669 99.9823 162.326 83.0089 168.899 74.708C169.395 73.8407 168.031 71.3628 166.419 73.469Z" fill="white"/>
<path d="M226.854 71.7345C226.854 71.6106 225.242 70.3717 224.745 70.3717C225.117 70.3717 203.787 99.8584 198.207 99.8584C194.238 99.8584 191.882 93.6637 191.882 87.3451C191.882 84.4956 192.378 81.5221 193.494 78.4248C195.478 72.8496 196.718 66.7788 198.331 60.9558C198.579 60.3363 198.579 59.7168 198.579 59.0973C198.579 52.531 189.278 51.4159 184.317 50.5487C175.14 49.0619 181.217 44.8496 176.876 37.0442C175.76 35.0619 173.9 34.0708 172.164 34.0708C168.443 34.0708 165.343 39.0265 165.343 42.7434C165.343 45.9646 167.203 49.0619 170.924 51.292C173.652 53.0265 174.52 53.5221 174.52 55.0088C174.52 57.9823 170.056 68.1416 165.467 74.3363C164.847 75.5752 166.955 76.3186 167.575 75.823C173.776 69.7522 176.256 53.646 180.721 53.7699C185.061 53.8938 188.534 55.8761 188.534 57.7345C188.534 58.354 188.41 59.2212 188.162 60.2124C185.929 67.3982 181.713 77.4336 181.713 83.7522C181.713 92.0531 188.906 104.071 198.951 104.071C201.555 104.071 203.539 103.08 205.399 100.726C210.36 94.1593 226.854 73.9646 226.854 71.7345ZM175.512 46.8319C175.14 47.5752 174.644 48.8142 174.272 48.8142C170.676 48.4425 169.808 45.5929 169.808 43.4867C169.808 41.5044 171.048 37.9115 172.784 37.9115C174.644 37.9115 175.512 43.8584 175.76 44.9734C175.636 46.3363 175.636 46.5841 175.512 46.8319Z" fill="white"/>
<path d="M266.049 90.6903C265.429 91.3097 264.933 91.5575 264.312 91.5575C263.444 91.5575 262.7 90.8142 262.576 89.4513C261.832 83.0088 261.088 66.0354 258.112 66.0354C255.756 66.0354 252.655 72.1062 251.043 75.2035C247.075 83.0088 240.998 89.0796 234.177 94.4071C233.309 95.1504 231.821 95.646 230.581 95.646C228.845 95.646 227.108 93.4159 227.108 91.4336C227.605 79.6637 234.797 68.6372 242.362 59.8407C243.602 58.354 244.098 57.115 244.222 56C244.222 53.5221 239.014 48.6903 236.161 48.6903C231.201 48.6903 224.132 61.3274 221.032 68.0177C218.676 72.9734 218.18 79.292 218.18 83.3805C218.18 91.0619 223.512 100.602 229.961 100.602C236.782 100.602 246.331 86.6018 253.523 78.5487C254.019 77.8053 255.011 77.4336 255.88 76.9381C257.864 81.5221 257.864 89.5752 257.864 92.7965C257.864 97.5044 256.376 101.717 253.027 105.681C244.098 116.336 237.03 127.858 230.953 140.248C226.984 148.301 223.884 156.478 223.884 165.522C223.884 175.681 227.357 181.257 234.425 181.257C245.09 181.257 253.771 171.469 256.748 161.805C261.832 144.956 263.32 127.858 263.32 110.389C263.32 108.655 262.948 106.796 262.948 105.186C262.948 100.973 264.809 97.1327 268.157 93.9115C276.838 85.8584 288.123 73.5929 287.999 73.0973C287.999 72.1062 287.255 71.115 287.255 69.6283C281.55 76.1947 272.249 84.3717 266.049 90.6903ZM253.027 154.743C250.919 165.894 242.982 177.788 234.921 177.788C229.217 177.788 228.225 172.956 228.225 169.363C228.225 160.071 229.837 151.77 234.301 143.841C240.006 133.434 246.331 123.15 252.531 113.115C253.647 111.381 255.632 109.274 256.872 109.274C257.988 109.398 258.484 111.628 258.484 115.221C258.484 125.381 254.639 145.823 253.027 154.743Z" fill="white"/>
<path d="M47.0219 179.243C62.1515 178.872 56.1989 196.341 56.4469 196.836C56.4469 197.58 56.1989 198.819 57.6871 198.819C58.9272 198.819 59.1752 198.075 59.4232 196.836C59.6713 195.35 67.8561 176.889 48.5101 174.659C37.1009 173.42 23.7074 189.65 34.0005 203.031C36.6048 206.5 51.9825 220.376 53.9667 224.588C55.9509 228.305 59.1752 238.96 51.9825 238.465C48.014 238.465 46.5259 229.296 46.6499 227.81C46.6499 227.438 46.5259 226.819 46.1538 226.819C45.7818 226.571 45.2857 226.819 44.9137 226.819C42.4334 230.04 44.5417 242.181 51.9825 242.429C58.3071 242.677 66.368 236.482 62.5236 221.615C60.4154 213.562 45.0377 201.544 41.8134 197.704C32.7604 186.429 42.5574 179.367 47.0219 179.243Z" fill="white"/>
<path d="M146.994 205.881C146.374 205.757 144.018 213.562 143.646 214.553C142.033 217.774 130.128 246.642 122.563 246.642C119.091 246.642 117.107 238.465 117.107 233.881C117.107 227.686 119.711 220.004 121.075 213.438C121.943 208.978 122.935 203.898 122.935 199.438C122.935 194.978 119.711 192.376 112.642 192.376C104.333 192.376 96.0246 201.42 92.0562 209.721C91.6841 210.712 90.816 211.332 90.0719 212.199C85.9795 207.615 84.8634 203.279 84.8634 198.571C84.8634 195.473 85.7315 192.376 87.9637 189.403C90.196 186.429 91.5601 182.712 93.1723 179.119C96.3966 171.934 99.2489 164.624 99.2489 155.951C99.2489 155.208 99.2489 154.588 99.2489 153.845C99.2489 153.35 99.3729 152.358 99.3729 151.367C99.3729 145.173 95.6525 140.96 90.568 140.96C83.0032 140.96 76.5545 150.624 75.0663 159.173C74.0742 164.748 73.5782 170.199 73.5782 175.774C73.5782 183.456 75.8104 190.642 76.4305 198.199C80.6469 223.845 88.9558 223.102 88.4598 223.102C91.5601 223.102 95.9006 211.58 98.5048 206.376C100.613 202.288 103.837 199.438 107.558 196.96C108.55 196.341 110.162 196.341 111.278 195.969C111.526 196.836 112.022 197.827 112.022 198.819C112.022 198.942 112.022 198.942 112.022 199.066C111.03 205.509 110.286 212.075 109.046 218.518C108.426 221.367 108.054 224.341 108.054 227.19C108.054 236.358 112.642 250.358 122.563 250.358C133.477 250.358 143.77 221.491 145.754 215.173C146.002 214.305 147.738 209.845 147.738 207.367C147.738 206.624 147.49 206.004 146.994 205.881ZM82.0111 186.801C81.639 181.969 81.391 177.013 81.143 172.925C81.267 171.686 81.267 170.323 81.267 169.084C81.267 167.102 81.143 165.243 81.143 163.385C81.143 156.199 83.2512 149.385 88.5838 145.049C89.4519 144.305 90.568 143.934 91.4361 143.934C94.6604 143.934 96.1486 148.889 96.1486 152.606C95.7766 161.031 94.5364 169.332 90.444 176.889C88.4598 180.606 85.3594 188.412 83.3752 188.412C82.8792 188.412 82.1351 187.42 82.0111 186.801Z" fill="white"/>
<path d="M144.276 202.907C142.912 212.075 149.237 230.04 161.266 229.049C173.295 227.81 175.652 210.093 175.28 201.173C174.908 192.128 173.171 177.261 161.762 176.146C147.749 174.907 145.268 193.119 144.276 202.907ZM151.097 202.288C151.717 195.35 152.213 179.987 162.258 179.491C171.807 179.119 173.171 196.712 172.799 203.279C172.179 208.854 170.319 226.571 158.91 225.084C150.601 223.969 151.345 208.235 151.097 202.288Z" fill="white"/>
<path d="M184.214 260.765C184.09 262.376 184.09 263.863 184.09 265.35C184.09 275.013 185.827 282.695 188.927 290.376C190.787 295.084 193.763 298.801 198.228 300.907C198.476 301.031 199.468 301.031 199.592 300.907C199.716 300.411 199.84 299.296 199.716 299.049C194.135 292.978 192.275 285.668 191.779 277.615C191.655 275.633 191.655 273.527 191.655 271.544C191.655 265.721 192.027 259.898 193.019 253.951C193.763 248.5 194.632 243.049 195.748 237.473C196.492 233.509 197.608 229.173 201.948 230.535C217.698 232.022 226.255 221.119 230.595 211.58C231.96 208.482 236.3 199.934 235.432 192.624C234.688 186.429 230.471 182.836 225.387 182.836C223.403 182.836 221.294 183.456 219.062 184.571C216.458 185.934 214.598 187.296 212.365 188.907C210.629 190.27 204.801 195.845 203.933 196.093C203.809 195.35 205.173 190.765 204.429 185.934C203.685 180.854 202.444 179.119 197.608 177.881C195.128 177.385 193.887 178.252 194.384 180.854C195.004 183.827 195.5 186.677 195.5 189.527C195.5 191.137 195.376 192.872 195.004 194.482C192.523 207.119 190.291 219.633 188.183 232.27C186.447 242.553 184.71 252.96 184.214 260.765ZM224.023 188.164C228.487 188.04 230.471 191.385 230.471 196.093C230.471 206.376 221.17 223.473 209.761 226.323C203.809 227.81 200.832 225.332 200.832 220.624C200.832 219.013 201.08 217.155 201.824 215.173C202.692 212.447 203.56 210.093 204.429 207.243C206.537 200.305 221.418 188.164 224.023 188.164Z" fill="white"/>
</g>
<defs>
<filter id="filter0_d_63_8" x="0" y="0" width="292" height="309" filterUnits="userSpaceOnUse" color-interpolation-filters="sRGB">
<feFlood flood-opacity="0" result="BackgroundImageFix"/>
<feColorMatrix in="SourceAlpha" type="matrix" values="0 0 0 0 0 0 0 0 0 0 0 0 0 0 0 0 0 0 127 0" result="hardAlpha"/>
<feOffset dy="4"/>
<feGaussianBlur stdDeviation="2"/>
<feComposite in2="hardAlpha" operator="out"/>
<feColorMatrix type="matrix" values="0 0 0 0 0 0 0 0 0 0 0 0 0 0 0 0 0 0 0.25 0"/>
<feBlend mode="normal" in2="BackgroundImageFix" result="effect1_dropShadow_63_8"/>
<feBlend mode="normal" in="SourceGraphic" in2="effect1_dropShadow_63_8" result="shape"/>
</filter>
</defs>
</svg>
